<svg width="379" height="50" viewBox="0 0 379 50" fill="none" xmlns="http://www.w3.org/2000/svg">
<rect x="0.75" y="0.75" width="377.5" height="48.5" rx="7.25" stroke="#0052CC" stroke-width="1.5" stroke-linecap="round"/>
<path d="M185.352 23.9766H180.578V29H179.078V17.625H186.125V18.8594H180.578V22.75H185.352V23.9766ZM192.648 29C192.565 28.8333 192.497 28.5365 192.445 28.1094C191.773 28.8073 190.971 29.1562 190.039 29.1562C189.206 29.1562 188.521 28.9219 187.984 28.4531C187.453 27.9792 187.188 27.3802 187.188 26.6562C187.188 25.776 187.521 25.0938 188.188 24.6094C188.859 24.1198 189.802 23.875 191.016 23.875H192.422V23.2109C192.422 22.7057 192.271 22.3047 191.969 22.0078C191.667 21.7057 191.221 21.5547 190.633 21.5547C190.117 21.5547 189.685 21.6849 189.336 21.9453C188.987 22.2057 188.812 22.5208 188.812 22.8906H187.359C187.359 22.4688 187.508 22.0625 187.805 21.6719C188.107 21.276 188.513 20.9635 189.023 20.7344C189.539 20.5052 190.104 20.3906 190.719 20.3906C191.693 20.3906 192.456 20.6354 193.008 21.125C193.56 21.6094 193.846 22.2786 193.867 23.1328V27.0234C193.867 27.7995 193.966 28.4167 194.164 28.875V29H192.648ZM190.25 27.8984C190.703 27.8984 191.133 27.7812 191.539 27.5469C191.945 27.3125 192.24 27.0078 192.422 26.6328V24.8984H191.289C189.518 24.8984 188.633 25.4167 188.633 26.4531C188.633 26.9062 188.784 27.2604 189.086 27.5156C189.388 27.7708 189.776 27.8984 190.25 27.8984ZM199.523 27.9766C200.039 27.9766 200.49 27.8203 200.875 27.5078C201.26 27.1953 201.474 26.8047 201.516 26.3359H202.883C202.857 26.8203 202.69 27.2812 202.383 27.7188C202.076 28.1562 201.664 28.5052 201.148 28.7656C200.638 29.026 200.096 29.1562 199.523 29.1562C198.372 29.1562 197.456 28.7734 196.773 28.0078C196.096 27.237 195.758 26.1849 195.758 24.8516V24.6094C195.758 23.7865 195.909 23.0547 196.211 22.4141C196.513 21.7734 196.945 21.276 197.508 20.9219C198.076 20.5677 198.745 20.3906 199.516 20.3906C200.464 20.3906 201.25 20.6745 201.875 21.2422C202.505 21.8099 202.841 22.5469 202.883 23.4531H201.516C201.474 22.9062 201.266 22.4583 200.891 22.1094C200.521 21.7552 200.062 21.5781 199.516 21.5781C198.781 21.5781 198.211 21.8438 197.805 22.375C197.404 22.901 197.203 23.6641 197.203 24.6641V24.9375C197.203 25.9115 197.404 26.6615 197.805 27.1875C198.206 27.7135 198.779 27.9766 199.523 27.9766ZM208.016 29.1562C206.87 29.1562 205.938 28.7812 205.219 28.0312C204.5 27.276 204.141 26.2682 204.141 25.0078V24.7422C204.141 23.9036 204.299 23.1562 204.617 22.5C204.94 21.8385 205.388 21.3229 205.961 20.9531C206.539 20.5781 207.164 20.3906 207.836 20.3906C208.935 20.3906 209.789 20.7526 210.398 21.4766C211.008 22.2005 211.312 23.237 211.312 24.5859V25.1875H205.586C205.607 26.0208 205.849 26.6953 206.312 27.2109C206.781 27.7214 207.375 27.9766 208.094 27.9766C208.604 27.9766 209.036 27.8724 209.391 27.6641C209.745 27.4557 210.055 27.1797 210.32 26.8359L211.203 27.5234C210.495 28.612 209.432 29.1562 208.016 29.1562ZM207.836 21.5781C207.253 21.5781 206.763 21.7917 206.367 22.2188C205.971 22.6406 205.727 23.2344 205.633 24H209.867V23.8906C209.826 23.1562 209.628 22.5885 209.273 22.1875C208.919 21.7812 208.44 21.5781 207.836 21.5781ZM220.148 24.8672C220.148 26.1589 219.852 27.1979 219.258 27.9844C218.664 28.7656 217.867 29.1562 216.867 29.1562C215.799 29.1562 214.974 28.7786 214.391 28.0234L214.32 29H212.992V17H214.438V21.4766C215.021 20.7526 215.826 20.3906 216.852 20.3906C217.878 20.3906 218.682 20.7786 219.266 21.5547C219.854 22.3307 220.148 23.3932 220.148 24.7422V24.8672ZM218.703 24.7031C218.703 23.7188 218.513 22.9583 218.133 22.4219C217.753 21.8854 217.206 21.6172 216.492 21.6172C215.539 21.6172 214.854 22.0599 214.438 22.9453V26.6016C214.88 27.487 215.57 27.9297 216.508 27.9297C217.201 27.9297 217.74 27.6615 218.125 27.125C218.51 26.5885 218.703 25.7812 218.703 24.7031ZM221.594 24.6953C221.594 23.8672 221.755 23.1224 222.078 22.4609C222.406 21.7995 222.859 21.2891 223.438 20.9297C224.021 20.5703 224.685 20.3906 225.43 20.3906C226.581 20.3906 227.51 20.7891 228.219 21.5859C228.932 22.3828 229.289 23.4427 229.289 24.7656V24.8672C229.289 25.6901 229.13 26.4297 228.812 27.0859C228.5 27.737 228.049 28.2448 227.461 28.6094C226.878 28.974 226.206 29.1562 225.445 29.1562C224.299 29.1562 223.37 28.7578 222.656 27.9609C221.948 27.1641 221.594 26.1094 221.594 24.7969V24.6953ZM223.047 24.8672C223.047 25.8047 223.263 26.5573 223.695 27.125C224.133 27.6927 224.716 27.9766 225.445 27.9766C226.18 27.9766 226.763 27.6901 227.195 27.1172C227.628 26.5391 227.844 25.7318 227.844 24.6953C227.844 23.7682 227.622 23.0182 227.18 22.4453C226.742 21.8672 226.159 21.5781 225.43 21.5781C224.716 21.5781 224.141 21.862 223.703 22.4297C223.266 22.9974 223.047 23.8099 223.047 24.8672ZM230.719 24.6953C230.719 23.8672 230.88 23.1224 231.203 22.4609C231.531 21.7995 231.984 21.2891 232.562 20.9297C233.146 20.5703 233.81 20.3906 234.555 20.3906C235.706 20.3906 236.635 20.7891 237.344 21.5859C238.057 22.3828 238.414 23.4427 238.414 24.7656V24.8672C238.414 25.6901 238.255 26.4297 237.938 27.0859C237.625 27.737 237.174 28.2448 236.586 28.6094C236.003 28.974 235.331 29.1562 234.57 29.1562C233.424 29.1562 232.495 28.7578 231.781 27.9609C231.073 27.1641 230.719 26.1094 230.719 24.7969V24.6953ZM232.172 24.8672C232.172 25.8047 232.388 26.5573 232.82 27.125C233.258 27.6927 233.841 27.9766 234.57 27.9766C235.305 27.9766 235.888 27.6901 236.32 27.1172C236.753 26.5391 236.969 25.7318 236.969 24.6953C236.969 23.7682 236.747 23.0182 236.305 22.4453C235.867 21.8672 235.284 21.5781 234.555 21.5781C233.841 21.5781 233.266 21.862 232.828 22.4297C232.391 22.9974 232.172 23.8099 232.172 24.8672ZM242.586 25.0859L241.68 26.0312V29H240.234V17H241.68V24.2578L242.453 23.3281L245.086 20.5469H246.844L243.555 24.0781L247.227 29H245.531L242.586 25.0859Z" fill="#0052CC"/>
<path d="M50 0V50" stroke="#0052CC" stroke-width="1.5"/>
<path d="M32 15H29C27.6739 15 26.4021 15.5268 25.4645 16.4645C24.5268 17.4021 24 18.6739 24 20V23H21V27H24V35H28V27H31L32 23H28V20C28 19.7348 28.1054 19.4804 28.2929 19.2929C28.4804 19.1054 28.7348 19 29 19H32V15Z" fill="#0052CC"/>
</svg>
