<svg width="30" height="31" viewBox="0 0 30 31" fill="none" xmlns="http://www.w3.org/2000/svg">
<circle cx="15" cy="15.8433" r="15" fill="#A2BADD"/>
<g clip-path="url(#clip0)">
<path d="M18.3334 9.17676H11.6667C9.82576 9.17676 8.33337 10.6691 8.33337 12.5101V19.1768C8.33337 21.0177 9.82576 22.5101 11.6667 22.5101H18.3334C20.1743 22.5101 21.6667 21.0177 21.6667 19.1768V12.5101C21.6667 10.6691 20.1743 9.17676 18.3334 9.17676Z" stroke="white" stroke-linecap="round" stroke-linejoin="round"/>
<path d="M17.6667 15.4235C17.7489 15.9783 17.6542 16.5449 17.3958 17.0428C17.1375 17.5407 16.7288 17.9444 16.2278 18.1966C15.7267 18.4488 15.159 18.5365 14.6052 18.4474C14.0514 18.3583 13.5398 18.0969 13.1432 17.7002C12.7466 17.3036 12.4852 16.792 12.3961 16.2383C12.3069 15.6845 12.3947 15.1167 12.6469 14.6157C12.8991 14.1147 13.3028 13.706 13.8007 13.4476C14.2985 13.1893 14.8652 13.0945 15.42 13.1768C15.986 13.2607 16.5099 13.5244 16.9145 13.929C17.319 14.3336 17.5828 14.8575 17.6667 15.4235Z" stroke="white" stroke-linecap="round" stroke-linejoin="round"/>
<path d="M18.6666 12.1768H18.6733" stroke="white" stroke-linecap="round" stroke-linejoin="round"/>
</g>
<defs>
<clipPath id="clip0">
<rect width="16" height="16" fill="white" transform="translate(7 7.84326)"/>
</clipPath>
</defs>
</svg>
