<svg width="162" height="52" viewBox="0 0 162 52" fill="none" xmlns="http://www.w3.org/2000/svg">
<path d="M43.6437 -3.57699e-07C48.1632 -1.60147e-07 51.8269 3.66374 51.8269 8.1832L51.8269 25.9135C51.8269 40.2251 40.225 51.8269 25.9134 51.8269C11.6018 51.8269 -2.08318e-05 40.2251 -2.02062e-05 25.9135C-1.95806e-05 11.6019 11.6018 -1.75829e-06 25.9134 -1.13271e-06L43.6437 -3.57699e-07Z" fill="#0052CC"/>
<path d="M78.6543 32H75.5869L71.0518 24.0371V32H67.9668V19.2031H71.0518L75.5781 27.166V19.2031H78.6543V32ZM98.8322 29.6094H94.6047L93.8664 32H90.5705L95.2639 19.2031H98.1643L102.893 32H99.5793L98.8322 29.6094ZM95.343 27.2275H98.0939L96.7141 22.7891L95.343 27.2275ZM117.718 29.627H123.088V32H114.633V19.2031H117.718V29.627ZM142.633 29.6094H138.406L137.668 32H134.372L139.065 19.2031H141.965L146.694 32H143.38L142.633 29.6094ZM139.144 27.2275H141.895L140.515 22.7891L139.144 27.2275Z" fill="#345181"/>
<path fill-rule="evenodd" clip-rule="evenodd" d="M14.8607 21.6515C12.7869 19.5778 12.7869 16.2155 14.8607 14.1418C16.9345 12.068 20.2967 12.068 22.3705 14.1418L37.4291 29.2003C39.5028 31.2741 39.5028 34.6363 37.429 36.7101C35.3553 38.7839 31.993 38.7839 29.9193 36.7101L14.8607 21.6515ZM21.4712 36.9039C21.4712 37.7899 20.753 38.5081 19.867 38.5081H16.6587C14.0008 38.5081 11.8462 36.3535 11.8462 33.6956C11.8462 31.0377 14.0008 28.8831 16.6587 28.8831C19.3166 28.8831 21.4712 31.0377 21.4712 33.6956V36.9039ZM31.96 12.5946C31.074 12.5946 30.3558 13.3129 30.3558 14.1988V17.4071C30.3558 20.065 32.5104 22.2196 35.1683 22.2196C37.8262 22.2196 39.9808 20.065 39.9808 17.4071C39.9808 14.7493 37.8262 12.5946 35.1683 12.5946H31.96Z" fill="white"/>
</svg>
