<svg width="203" height="114" viewBox="0 0 203 114" fill="none" xmlns="http://www.w3.org/2000/svg">
<path d="M72.8118 50.2399H76.2318V64.0681H72.8118V50.2399ZM77.5884 58.8469C77.5884 55.4269 79.686 53.3863 82.9236 53.3863C86.1612 53.3863 88.2588 55.4269 88.2588 58.8469C88.2588 62.2669 86.2068 64.3189 82.9236 64.3189C79.6404 64.3189 77.5884 62.3239 77.5884 58.8469ZM84.8274 58.8469C84.8274 56.9659 84.0864 55.8601 82.9236 55.8601C81.7608 55.8601 81.0312 57.0001 81.0312 58.8469C81.0312 60.6937 81.7494 61.8109 82.9236 61.8109C84.0978 61.8109 84.8274 60.7621 84.8274 58.8583V58.8469ZM89.547 64.7407H92.8302C92.9864 65.0878 93.2506 65.3752 93.5833 65.5601C93.9161 65.7449 94.2997 65.8174 94.677 65.7667C95.9766 65.7667 96.6606 65.0599 96.6606 64.0339V62.1187H96.5922C96.3197 62.7057 95.8775 63.1975 95.3228 63.5308C94.768 63.864 94.1262 64.0234 93.48 63.9883C90.9834 63.9883 89.3304 62.0845 89.3304 58.8127C89.3304 55.5409 90.9036 53.4775 93.5256 53.4775C94.192 53.4513 94.8505 53.6295 95.4129 53.9881C95.9752 54.3467 96.4145 54.8686 96.672 55.4839V53.5801H100.092V63.9541C100.092 66.4507 97.8918 68.0011 94.6428 68.0011C91.6218 68.0011 89.7408 66.6445 89.547 64.7521V64.7407ZM96.672 58.8355C96.672 57.1711 95.9082 56.1223 94.6998 56.1223C93.4914 56.1223 92.7504 57.1597 92.7504 58.8355C92.7504 60.5113 93.48 61.4575 94.6998 61.4575C95.9196 61.4575 96.672 60.5341 96.672 58.8469V58.8355ZM101.38 58.8355C101.38 55.4155 103.478 53.3749 106.715 53.3749C109.953 53.3749 112.062 55.4155 112.062 58.8355C112.062 62.2555 110.01 64.3075 106.715 64.3075C103.421 64.3075 101.38 62.3239 101.38 58.8469V58.8355ZM108.619 58.8355C108.619 56.9545 107.878 55.8487 106.715 55.8487C105.553 55.8487 104.88 57.0001 104.88 58.8583C104.88 60.7165 105.598 61.8223 106.761 61.8223C107.924 61.8223 108.619 60.7621 108.619 58.8583V58.8355ZM113.362 51.0949C113.353 50.7496 113.446 50.4094 113.631 50.1174C113.816 49.8255 114.083 49.5949 114.399 49.455C114.714 49.315 115.065 49.272 115.405 49.3314C115.745 49.3907 116.06 49.5497 116.31 49.7883C116.56 50.0269 116.733 50.3343 116.808 50.6715C116.883 51.0087 116.856 51.3605 116.731 51.6824C116.605 52.0043 116.387 52.2817 116.104 52.4795C115.821 52.6773 115.485 52.7866 115.14 52.7935C114.911 52.8092 114.681 52.7774 114.465 52.7001C114.249 52.6228 114.051 52.5017 113.884 52.3443C113.717 52.1869 113.585 51.9967 113.495 51.7856C113.405 51.5746 113.359 51.3471 113.362 51.1177V51.0949ZM113.362 53.6029H116.782V64.0681H113.362V53.6029ZM129.196 58.8355C129.196 62.2555 127.68 64.2049 125.081 64.2049C124.414 64.2477 123.751 64.0847 123.18 63.7381C122.609 63.3915 122.158 62.8779 121.889 62.2669H121.82V67.4197H118.4V53.5801H121.82V55.4497H121.889C122.146 54.8285 122.588 54.3016 123.155 53.9405C123.722 53.5795 124.386 53.4019 125.058 53.4319C127.68 53.4775 129.242 55.4383 129.242 58.8583L129.196 58.8355ZM125.776 58.8355C125.776 57.1711 125.012 56.1109 123.815 56.1109C122.618 56.1109 121.855 57.1825 121.843 58.8355C121.832 60.4885 122.618 61.5487 123.815 61.5487C125.012 61.5487 125.776 60.5113 125.776 58.8583V58.8355ZM135.067 53.3635C137.906 53.3635 139.627 54.7087 139.707 56.8633H136.595C136.595 56.1223 135.979 55.6549 135.033 55.6549C134.087 55.6549 133.665 56.0197 133.665 56.5555C133.665 57.0913 134.041 57.2623 134.805 57.4219L136.994 57.8665C139.08 58.3111 139.969 59.1547 139.969 60.7393C139.969 62.9053 137.997 64.2961 135.09 64.2961C132.183 64.2961 130.279 62.9053 130.131 60.7735H133.426C133.528 61.5487 134.144 62.0047 135.147 62.0047C136.15 62.0047 136.606 61.6741 136.606 61.1269C136.606 60.5797 136.287 60.4657 135.466 60.2947L133.494 59.8729C131.453 59.4511 130.382 58.3681 130.382 56.7721C130.405 54.7201 132.24 53.3863 135.067 53.3863V53.3635ZM151.381 64.0453H148.086V62.0959H148.018C147.836 62.7504 147.437 63.3232 146.885 63.7193C146.334 64.1154 145.663 64.3109 144.985 64.2733C144.466 64.3028 143.946 64.2205 143.461 64.0318C142.976 63.8432 142.537 63.5526 142.174 63.1798C141.81 62.807 141.532 62.3605 141.356 61.8707C141.18 61.3808 141.112 60.8589 141.155 60.3403V53.5801H144.575V59.5537C144.575 60.7963 145.213 61.4575 146.273 61.4575C146.522 61.458 146.768 61.4053 146.994 61.3031C147.221 61.2008 147.423 61.0513 147.587 60.8645C147.751 60.6778 147.874 60.4581 147.946 60.2202C148.018 59.9823 148.039 59.7318 148.006 59.4853V53.5801H151.426L151.381 64.0453ZM153.034 53.5801H156.34V55.5979H156.408C156.589 54.952 156.98 54.3846 157.518 53.9844C158.057 53.5842 158.713 53.3739 159.383 53.3863C160.066 53.3316 160.744 53.5359 161.282 53.9583C161.821 54.3808 162.181 54.9905 162.29 55.6663H162.359C162.566 54.9834 162.994 54.3886 163.576 53.9758C164.158 53.5631 164.861 53.3556 165.574 53.3863C166.039 53.3707 166.502 53.4531 166.933 53.6281C167.364 53.8032 167.754 54.067 168.076 54.4025C168.399 54.7379 168.647 55.1375 168.805 55.5752C168.963 56.0129 169.027 56.4789 168.994 56.9431V64.0681H165.574V57.8551C165.574 56.7151 165.061 56.1907 164.103 56.1907C163.889 56.1889 163.678 56.2329 163.483 56.3197C163.288 56.4066 163.114 56.5343 162.972 56.6942C162.831 56.8541 162.725 57.0425 162.662 57.2467C162.6 57.4509 162.582 57.6661 162.61 57.8779V64.0681H159.361V57.8095C159.361 56.7607 158.848 56.1907 157.913 56.1907C157.697 56.1907 157.483 56.2366 157.286 56.3252C157.089 56.4138 156.914 56.5432 156.77 56.7048C156.627 56.8664 156.52 57.0565 156.455 57.2627C156.391 57.4688 156.371 57.6863 156.397 57.9007V64.0681H152.977L153.034 53.5801Z" fill="#5B6B88"/>
<path d="M63.2472 50.8667C62.6671 49.5402 61.8992 48.304 60.9672 47.196C59.5895 45.5091 57.8701 44.1332 55.9223 43.1588C53.9745 42.1843 51.8424 41.6334 49.6664 41.5423C47.4903 41.4512 45.3197 41.822 43.2972 42.6302C41.2748 43.4385 39.4465 44.6659 37.9326 46.2317C36.4187 47.7974 35.2535 49.666 34.5139 51.7145C33.7742 53.763 33.4767 55.945 33.641 58.1167C33.8053 60.2885 34.4277 62.4008 35.4672 64.3147C36.5067 66.2286 37.9397 67.9006 39.672 69.2207C40.7835 70.0847 42.0117 70.7871 43.32 71.3069C45.1543 72.0586 47.1175 72.4458 49.0998 72.4469C53.1917 72.4379 57.1131 70.8068 60.0044 67.9112C62.8957 65.0157 64.521 61.0919 64.524 56.9999C64.527 54.8893 64.0923 52.8009 63.2472 50.8667ZM49.0884 44.6765C50.8686 44.6764 52.6273 45.0654 54.2412 45.8165C53.8476 45.9866 53.4338 46.1054 53.01 46.17C51.6153 46.3718 50.3233 47.0193 49.3269 48.0158C48.3304 49.0123 47.6829 50.3043 47.481 51.6989C47.3924 52.4811 47.0366 53.2088 46.4738 53.7591C45.911 54.3095 45.1756 54.6489 44.3916 54.7199C42.9969 54.9218 41.7049 55.5693 40.7085 56.5658C39.712 57.5623 39.0645 58.8543 38.8626 60.2489C38.7942 60.9927 38.4769 61.6916 37.962 62.2325C37.0735 60.3553 36.6744 58.2837 36.8018 56.2107C36.9292 54.1377 37.5788 52.1307 38.6904 50.3763C39.802 48.6219 41.3393 47.1772 43.1593 46.1766C44.9794 45.1761 47.0229 44.6522 49.0998 44.6537L49.0884 44.6765ZM39.6606 64.9799C39.7974 64.8545 39.9342 64.7405 40.071 64.6037C41.0852 63.6204 41.7362 62.3224 41.9178 60.9215C41.9914 60.1341 42.343 59.3986 42.9096 58.8467C43.4548 58.2792 44.1886 57.9305 44.973 57.8663C46.3677 57.6645 47.6597 57.017 48.6561 56.0205C49.6526 55.024 50.3001 53.732 50.502 52.3373C50.5513 51.5137 50.9048 50.7377 51.4938 50.16C52.0525 49.6035 52.7933 49.2674 53.58 49.2137C54.8613 49.0375 56.0562 48.4679 57 47.5836C58.0746 48.4751 58.9851 49.5477 59.6904 50.7528C59.6471 50.8113 59.5974 50.8648 59.5422 50.9123C58.998 51.4849 58.2651 51.8412 57.4788 51.9156C56.0827 52.1139 54.7887 52.7603 53.7916 53.7574C52.7945 54.7545 52.1482 56.0484 51.9498 57.4445C51.8695 58.2294 51.5203 58.9623 50.9614 59.5191C50.4025 60.0759 49.6683 60.4223 48.8832 60.4997C47.4844 60.7001 46.1876 61.3463 45.1854 62.3424C44.1832 63.3384 43.529 64.6313 43.32 66.0287C43.2586 66.5859 43.0673 67.1209 42.7614 67.5905C41.5918 66.8961 40.5442 66.0141 39.6606 64.9799ZM49.0884 69.3803C47.9316 69.3816 46.7804 69.2204 45.6684 68.9015C46.0488 68.1925 46.2961 67.4197 46.398 66.6215C46.4779 65.8385 46.8255 65.107 47.382 64.5504C47.9386 63.9938 48.6701 63.6462 49.4532 63.5663C50.85 63.3667 52.1445 62.7202 53.1432 61.7236C54.1419 60.7269 54.7911 59.4337 54.9936 58.0373C55.0735 57.2543 55.4211 56.5228 55.9776 55.9662C56.5342 55.4096 57.2657 55.062 58.0488 54.9821C59.0999 54.8454 60.1017 54.4541 60.9672 53.8421C61.4478 55.6638 61.5047 57.5713 61.1336 59.4183C60.7625 61.2653 59.9733 63.0028 58.8264 64.4975C57.6796 65.9921 56.2056 67.2042 54.5176 68.0407C52.8295 68.8773 50.9723 69.316 49.0884 69.3233V69.3803Z" fill="#5B6B88"/>
<circle cx="42" cy="109" r="5" fill="#A2BADD"/>
<circle cx="62" cy="109" r="4" stroke="#A2BADD" stroke-width="2"/>
<circle cx="82" cy="109" r="4" stroke="#A2BADD" stroke-width="2"/>
<circle cx="101" cy="109" r="4" stroke="#A2BADD" stroke-width="2"/>
<circle cx="122" cy="109" r="4" stroke="#A2BADD" stroke-width="2"/>
</svg>
