<svg width="28" height="150" viewBox="0 0 28 150" fill="none" xmlns="http://www.w3.org/2000/svg">
<path d="M10.3804 5.77002C10.7866 5.77002 11.0998 5.62614 11.3198 5.33838C11.5399 5.05485 11.762 4.54069 11.9863 3.7959C12.2106 3.05111 12.4603 2.45866 12.7354 2.01855C13.2643 1.17643 13.9541 0.75537 14.8047 0.755371C15.5495 0.755371 16.1631 1.05794 16.6455 1.66309C17.1279 2.27246 17.3691 3.06169 17.3691 4.03076C17.3691 4.67399 17.2507 5.2474 17.0137 5.75098C16.7767 6.25456 16.4382 6.65023 15.998 6.93799C15.5622 7.22575 15.0776 7.36963 14.5444 7.36963L14.5444 5.77002C15.0269 5.77002 15.4035 5.61768 15.6743 5.31299C15.9494 5.01253 16.0869 4.58089 16.0869 4.01807C16.0869 3.49333 15.9748 3.08496 15.7505 2.79297C15.5262 2.50521 15.2131 2.36133 14.811 2.36133C14.4725 2.36133 14.189 2.5179 13.9604 2.83105C13.7362 3.14421 13.5161 3.66048 13.3003 4.37988C13.0887 5.09928 12.8454 5.67692 12.5703 6.11279C12.2995 6.54866 11.9863 6.86816 11.6309 7.07129C11.2796 7.27441 10.867 7.37598 10.3931 7.37598C9.62288 7.37598 9.00928 7.07975 8.55225 6.4873C8.09945 5.89909 7.87305 5.09928 7.87305 4.08789C7.87305 3.41927 7.99577 2.80355 8.24121 2.24072C8.49089 1.68213 8.83366 1.24626 9.26953 0.933105C9.7054 0.624185 10.2132 0.469726 10.793 0.469726L10.793 2.07568C10.2682 2.07568 9.86198 2.24919 9.57422 2.59619C9.28646 2.9432 9.14258 3.44043 9.14258 4.08789C9.14258 4.64648 9.25472 5.06543 9.479 5.34473C9.70752 5.62825 10.008 5.77002 10.3804 5.77002ZM11.0088 17.1374C10.0228 17.0443 9.2526 16.6804 8.69824 16.0456C8.14811 15.4108 7.87305 14.5666 7.87305 13.5129C7.87305 12.7766 8.04655 12.127 8.39355 11.5642C8.74479 11.0056 9.24202 10.5739 9.88525 10.2692C10.5285 9.96455 11.2754 9.80586 12.126 9.79316L12.9893 9.79316C13.861 9.79316 14.6291 9.94762 15.2935 10.2565C15.9578 10.5655 16.4699 11.0077 16.8296 11.5832C17.1893 12.163 17.3691 12.8316 17.3691 13.5891C17.3691 14.6089 17.092 15.4299 16.5376 16.052C15.9832 16.674 15.2004 17.0358 14.189 17.1374L14.189 15.5378C14.8534 15.4616 15.3315 15.267 15.6235 14.9538C15.9198 14.6449 16.0679 14.19 16.0679 13.5891C16.0679 12.8908 15.8118 12.3534 15.2998 11.9768C14.792 11.6044 14.0451 11.4139 13.0591 11.4055L12.2402 11.4055C11.2415 11.4055 10.4798 11.5832 9.95508 11.9387C9.43034 12.2984 9.16797 12.8231 9.16797 13.5129C9.16797 14.1434 9.30973 14.6174 9.59326 14.9348C9.87679 15.2521 10.3486 15.4532 11.0088 15.5378L11.0088 17.1374ZM11.561 23.2743L11.561 21.4843L8 21.4843L8 19.8783L17.2422 19.8783L17.2422 23.1283C17.2422 24.1947 17.0031 25.0178 16.5249 25.5976C16.0467 26.1773 15.3548 26.4672 14.4492 26.4672C13.8314 26.4672 13.313 26.317 12.894 26.0165C12.4793 25.7203 12.1598 25.3056 11.9355 24.7724L8.08252 26.848L8 26.848L8 25.1278L11.561 23.2743ZM12.8496 21.4843L12.8496 23.1347C12.8496 23.6763 12.985 24.0995 13.2559 24.4042C13.5309 24.7089 13.9054 24.8612 14.3794 24.8612C14.8745 24.8612 15.2575 24.7195 15.5283 24.4359C15.7992 24.1566 15.9388 23.7377 15.9473 23.1791L15.9473 21.4843L12.8496 21.4843ZM12.3799 36.6666C11.4743 36.6666 10.6787 36.51 9.99316 36.1969C9.31185 35.8837 8.78711 35.4352 8.41894 34.8512C8.05501 34.2714 7.87305 33.6028 7.87305 32.8453C7.87305 32.0963 8.05501 31.4277 8.41894 30.8395C8.78711 30.2555 9.30973 29.8027 9.98682 29.4811C10.6639 29.1637 11.4447 29.0029 12.3291 28.9986L12.8496 28.9986C13.751 28.9986 14.5465 29.1573 15.2363 29.4747C15.9261 29.7963 16.453 30.247 16.8169 30.8268C17.1851 31.4107 17.3691 32.0794 17.3691 32.8326C17.3691 33.5859 17.1872 34.2524 16.8232 34.8321C16.4635 35.4161 15.943 35.8668 15.2617 36.1842C14.5846 36.5016 13.7954 36.6624 12.894 36.6666L12.3799 36.6666ZM12.8623 35.0606C13.8864 35.0606 14.6714 34.866 15.2173 34.4767C15.7632 34.0916 16.0361 33.5436 16.0361 32.8326C16.0361 32.1386 15.7632 31.5948 15.2173 31.2013C14.6756 30.8119 13.9076 30.6131 12.9131 30.6046L12.3799 30.6046C11.3643 30.6046 10.5793 30.8014 10.0249 31.1949C9.47054 31.5927 9.19336 32.1428 9.19336 32.8453C9.19336 33.5562 9.46419 34.1021 10.0059 34.483C10.5475 34.8681 11.3389 35.0606 12.3799 35.0606L12.8623 35.0606ZM9.28222 41.1722L9.28222 45.368L8 45.368L8 39.5662L17.2422 39.5662L17.2422 41.1722L9.28222 41.1722ZM9.28222 49.5054L9.28222 53.7012L8 53.7012L8 47.8994L17.2422 47.8994L17.2422 49.5054L9.28222 49.5054Z" fill="#0052CC"/>
<path d="M12 81L12 150" stroke="#0052CC" stroke-width="2"/>
</svg>
