<svg width="30" height="31" viewBox="0 0 30 31" fill="none" xmlns="http://www.w3.org/2000/svg">
<circle cx="15" cy="15.8433" r="15" fill="#A2BADD"/>
<path d="M22.3333 9.84313C21.6949 10.2934 20.988 10.6379 20.24 10.8631C19.8385 10.4015 19.3048 10.0743 18.7113 9.92575C18.1178 9.77724 17.493 9.81459 16.9213 10.0328C16.3497 10.2509 15.8589 10.6394 15.5153 11.1456C15.1716 11.6518 14.9918 12.2514 15 12.8631V13.5298C13.8284 13.5602 12.6675 13.3003 11.6206 12.7734C10.5738 12.2465 9.6735 11.4689 8.99996 10.5098C8.99996 10.5098 6.33329 16.5098 12.3333 19.1765C10.9603 20.1084 9.32473 20.5758 7.66663 20.5098C13.6666 23.8431 21 20.5098 21 12.8431C20.9993 12.6574 20.9815 12.4722 20.9466 12.2898C21.627 11.6188 22.1072 10.7716 22.3333 9.84313V9.84313Z" stroke="white" stroke-linecap="round" stroke-linejoin="round"/>
</svg>
